# xmcd
#
# Track frame offsets:
#	150
#	23395
#	39822
#	58569
#	74633
#	99309
#	121955
#	162128
#	181033
#	211013
#
# Disc length: 2990 seconds
#
# Revision: 1
# Processed by: cddbd v1.5.2PL0 Copyright (c) Steve Scherf et al.
# Submitted via: audiograbber 1.83.01
#
DISCID=700bac0a
DTITLE=Scott McKeon - Can't Take No More
DYEAR=2006
DGENRE=BluesRock
TTITLE0=Can't Take No More
TTITLE1=Shot Down
TTITLE2=Honey Baby
TTITLE3=I Used To Have Somethung
TTITLE4=All The Same
TTITLE5=I Can See Through You
TTITLE6=Last Thing I Do
TTITLE7=Cool Lookin' Woman
TTITLE8=Maybe
TTITLE9=Fuzz Six Six Six
EXTD=
EXTT0=
EXTT1=
EXTT2=
EXTT3=
EXTT4=
EXTT5=
EXTT6=
EXTT7=
EXTT8=
EXTT9=
PLAYORDER=
